# xmcd
#
# Track frame offsets:
#	150
#	13262
#	23687
#	39885
#	57762
#	70540
#	80087
#	95987
#
# Disc length: 1496 seconds
#
# Revision: 0
# Processed by: cddbd v1.5.2PL0 Copyright (c) Steve Scherf et al.
# Submitted via: EasyCDDAExtractor 10.5.1.1
#
DISCID=5e05d608
DTITLE=Various Artist - More Gospel Greats
DYEAR=1900
DGENRE=Gospel
TTITLE0=Christy Lane\n - Just a Closer Walk with Thee\n
TTITLE1=Dolly Parton\n - I Believe\n
TTITLE2=B.J. Thomas\n - His Eye Is on the Sparrow\n
TTITLE3=Statler Brothers\n - Rock of Ages\n
TTITLE4=George Beverly Shea\n - In the Sweet By and By\n
TTITLE5=Elvis Presley\n - In My Father's House\n
TTITLE6=Tennessee Ernie Ford\n - Nearer My God to Thee\n
TTITLE7=The Robert Shaw Chorale\n - Swing Low, Sweet Chariot\n
EXTD=
EXTT0=
EXTT1=
EXTT2=
EXTT3=
EXTT4=
EXTT5=
EXTT6=
EXTT7=
PLAYORDER=
